<svg xmlns="http://www.w3.org/2000/svg" width="96" height="19" viewBox="0 0 96 19">
    <g fill="#888888" fill-rule="evenodd">
        <path d="M95.113 4.578c-3.03-1.301-7.086-.602-7.086 2.789 0 3.825 5.875 3.03 5.875 5.099 0 1.661-2.775 1.829-4.78.24-.14-.12-.28-.19-.443-.19-.233 0-.372.095-.372.431v.937c0 .267.07.482.35.626C91.243 15.713 96 15.739 96 11.31c0-3.8-5.944-2.934-5.944-4.833 0-1.563 2.913-1.418 4.591-.242.14.096.327.193.442.193.233 0 .374-.097.374-.432v-.795c0-.265-.07-.505-.35-.624M87.84 4.213c1.091 0 2.32-4.213.302-4.213h-1.09c-.255 0-.301.19-.301.334 0 .288.694 1.006.694 1.987 0 1.004-.37 1.364-.37 1.676 0 .121.116.216.278.216h.487M81.925 11.679l-.14-.457-2.217-6.743c-.07-.192-.162-.266-.373-.266h-2.38c-.14 0-.21.074-.21.218 0 .072.023.145.117.385l3.873 9.704c.654 1.639-1.26 2.818-3.104 2.289-.28-.073-.466-.145-.723-.145-.162 0-.303.169-.303.336v1.374c0 .29.187.626 1.213.626 2.474 0 3.804-1.3 4.994-4.359l3.826-9.897c.047-.144.093-.216.093-.313a.214.214 0 0 0-.209-.218h-1.658c-.162 0-.279.098-.326.266l-2.286 6.743-.187.457M72.278 7.438c0-1.161.396-1.887 2.82-1.234.302.073.49.145.746.145.161 0 .302-.167.302-.337V4.584c0-.242-.163-.433-.467-.507-1.677-.412-2.702.385-3.564 1.234l-.046-.026v-.798c0-.168-.117-.291-.28-.291h-2.027c-.118 0-.234.123-.234.291v10.259c0 .165.116.289.234.289h2.235c.165 0 .281-.124.281-.29V7.439M67.535 14.754V4.504c0-.168-.117-.291-.234-.291h-2.244c-.164 0-.28.123-.28.291v8.266c-.444.266-1.38.749-2.175.749-1.542 0-1.637-.964-1.637-1.788V4.504c0-.168-.117-.291-.233-.291h-2.244c-.165 0-.282.123-.282.291v7.468c0 1.957 1.006 3.31 3.251 3.31 1.285 0 2.641-.652 3.343-1.085h.047v.557c0 .165.116.288.28.288h2.174c.117 0 .234-.123.234-.288M47.123.457c0-.17.116-.292.233-.292h2.24c.162 0 .278.121.278.292v4.829-.024c.444-.386 1.47-1.233 3.058-1.233 2.403 0 3.918 2.174 3.918 5.072 0 3.718-2.495 6.182-5.575 6.182-1.68 0-2.917-.605-3.733-1.258-.35-.264-.42-.72-.42-1.108V.457zm3.08 13.257c.232.144.582.264 1.258.264 1.494 0 2.543-1.593 2.543-4.296 0-1.016-.21-3.867-2.333-3.867-.839 0-1.446.485-1.797.75v6.52c0 .22.048.435.328.63zM44.962 4.578c-3.03-1.301-7.088-.602-7.088 2.789 0 3.825 5.877 3.03 5.877 5.099 0 1.661-2.777 1.829-4.78.24-.142-.12-.28-.19-.444-.19-.233 0-.373.095-.373.431v.937c0 .267.07.482.35.626 2.586 1.203 7.344 1.229 7.344-3.2 0-3.8-5.946-2.934-5.946-4.833 0-1.563 2.915-1.418 4.593-.242.14.096.327.193.442.193.233 0 .373-.097.373-.432v-.795c0-.265-.07-.505-.348-.624M34.04 4.602c-.117-.097-.28-.193-.442-.193-.14 0-.28.097-.28.336v.7c0 .24.023.337.21.434.51.242 1.051.774 1.051 1.85v6.693c0 2.342-1.633 2.87-2.73 2.87-1.052 0-1.727-.433-2.33-.943a.346.346 0 0 0-.234-.096c-.164 0-.28.12-.28.336v1.085c0 .265.093.482.35.626 1.028.579 2.17.983 3.688.983 1.703 0 4.29-.917 4.29-4.082V8.348c0-1.756-1.773-2.988-3.293-3.746M27.766 9.834c0 1.516-.513 3.844-2.5 3.844-1.938 0-2.52-2.328-2.52-3.844 0-1.491.582-3.867 2.52-3.867 1.987 0 2.5 2.376 2.5 3.867m2.706 0c0-3.626-2.334-5.834-5.206-5.834-2.918 0-5.229 2.208-5.229 5.834 0 3.625 2.31 5.834 5.23 5.834 2.87 0 5.205-2.209 5.205-5.834M17.93 4.602c-.118-.097-.28-.193-.443-.193-.14 0-.28.097-.28.336v.7c0 .24.024.337.21.434.513.242 1.052.774 1.052 1.85v7.017c0 .17-.117.291-.28.291h-2.147c-.163 0-.28-.12-.28-.29V4.504c0-.168-.117-.291-.28-.291h-2.24c-.164 0-.28.123-.28.291v10.259c0 .165.116.288.28.288h6.988c.163 0 .279-.123.279-.288V8.348c0-1.756-1.775-2.988-3.295-3.746M6.727 4.578C3.695 3.277-.362 3.976-.362 7.367c0 3.825 5.877 3.03 5.877 5.099 0 1.661-2.777 1.829-4.78.24-.142-.12-.28-.19-.444-.19-.233 0-.373.095-.373.431v.937c0 .267.07.482.35.626C2.854 15.713 7.61 15.739 7.61 11.31c0-3.8-5.946-2.934-5.946-4.833 0-1.563 2.915-1.418 4.593-.242.14.096.327.193.442.193.233 0 .373-.097.373-.432v-.795c0-.265-.07-.505-.348-.624"/>
    </g>
</svg>
